<svg version="1.1" id="Layer_1" xmlns="http://www.w3.org/2000/svg" xmlns:xlink="http://www.w3.org/1999/xlink" x="0px" y="0px"
	 viewBox="0 0 1713.4 268.3" style="enable-background:new 0 0 1713.4 268.3;" xml:space="preserve">
<style type="text/css">
	.st0{fill:#333333;fill-opacity:0;}
	.st1{fill:#BC42B9;}
	.st2{fill:#B896FF;}
	.st3{fill:#6B66C4;}
	.st4{fill:#FF6FBC;}
	.st5{fill:#4CC8E9;}
	.st6{fill:#FFFFFF;}
</style>
<g transform="translate(57.80000305175781,0)">
	<g>
		<rect x="-57.8" class="st0" width="423.5" height="268.3"/>
		<path class="st1" d="M111.6,203.4l-41.1-87.6l-41.1,87.6c-5.8,12.2-5.8,26.4,0,38.7c7.5,16,23.5,26.1,41.2,26.1
			c25.1,0,45.4-20.4,45.4-45.5C115.9,216.1,114.5,209.5,111.6,203.4z"/>
		<path class="st2" d="M29.4,203.4l41.1-87.6L28.4,26.1C17.2,3.6-10.1-5.5-32.6,5.7c-21.7,10.8-31.1,36.8-21.3,59L29.5,242
			C23.7,229.8,23.6,215.7,29.4,203.4z"/>
		<path class="st3" d="M194.9,64.7c10.7-22.7,0.9-49.8-21.8-60.4s-49.8-0.9-60.4,21.8c-5.7,12.2-5.7,26.4,0,38.6l41.1,87.6
			L194.9,64.7z"/>
		<path class="st4" d="M112.6,64.7c-5.8-12.2-5.8-26.4,0-38.7l-42.1,89.7l41.1,87.6c5.8,12.2,5.8,26.4,0,38.7l42.1-89.7L112.6,64.7z
			"/>
		<path class="st3" d="M195.9,203.4l41.1-87.6l41.1,87.6c5.8,12.2,5.8,26.4,0,38.7c-10.7,22.7-37.7,32.5-60.5,21.8
			C194.9,253.2,185.1,226.2,195.9,203.4L195.9,203.4z"/>
		<path class="st4" d="M278.1,203.4L237,115.8l42.2-89.7c10.7-22.7,37.7-32.5,60.5-21.8C362.4,15,372.2,42,361.5,64.8l-83.4,177.3
			C283.8,229.8,283.8,215.6,278.1,203.4z"/>
		<path class="st5" d="M194.9,64.7c5.8-12.2,5.8-26.4,0-38.7l42.1,89.7l-41.1,87.6c-5.8,12.2-5.8,26.4,0,38.7l-42.1-89.7L194.9,64.7
			z"/>
	</g>
</g>
<g transform="translate(0,45.00547409057617)">
	<g>
		<g transform="scale(1)">
			<g>
				<path class="st6" d="M848.4,5.3h-47.2L743,138.2L684.8,5.3h-47.5l-58.2,132.9L520.9,5.3h-47.2l80.5,183.8H604l57-130.2l57,130.2
					h50L848.4,5.3z M922.8,145.9V48.6h97.3v97.3H922.8z M911.9,189.1h118.9c9,0,16.7-3.2,23-9.5l0,0c6.3-6.3,9.5-13.9,9.5-22.9l0,0
					v-119c0-8.9-3.2-16.6-9.5-23l0,0c-6.4-6.3-14-9.4-23-9.4l0,0H911.9c-9,0-16.6,3.1-22.9,9.4l0,0c-6.4,6.4-9.6,14.1-9.6,23l0,0
					v119c0,8.9,3.2,16.6,9.6,22.9l0,0C895.3,186,902.9,189.1,911.9,189.1L911.9,189.1z M1229.6,48.6v27h-92v-27H1229.6z
					 M1269.7,189.1l-36.9-70.3h7.5c9,0,16.7-3.2,23-9.5l0,0c6.4-6.4,9.5-14,9.5-22.9l0,0V37.7c0-8.9-3.2-16.6-9.5-23l0,0
					c-6.4-6.3-14-9.4-23-9.4l0,0h-146v183.8h43.3v-70.3h46.9l38,70.3H1269.7L1269.7,189.1z M1487.7,5.3h-183.8v43.3h70.2v140.5h43.3
					V48.6h70.3V5.3z M1713.4,5.3h-43.3v70.2H1562V5.3h-43.3v183.8h43.3v-70.3h108.1v70.3h43.3V5.3z"/>
			</g>
		</g>
	</g>
</g>
</svg>
